<?xml version="1.0" standalone="no"?>
<!DOCTYPE svg PUBLIC "-//W3C//DTD SVG 20010904//EN"
 "http://www.w3.org/TR/2001/REC-SVG-20010904/DTD/svg10.dtd">
<svg version="1.0" xmlns="http://www.w3.org/2000/svg"
 width="280.000000pt" height="280.000000pt" viewBox="0 0 280.000000 280.000000"
 preserveAspectRatio="xMidYMid meet" style="background-color: transparent;">
 <defs>
    <linearGradient id="gradient" x1="0%" y1="0%" x2="100%" y2="0%">
      <stop offset="0%"   stop-color="#c31e47"/>
      <stop offset="100%" stop-color="#fe4a1e"/>
    </linearGradient>
  </defs>

    <g transform="translate(0.000000,280.000000) scale(0.100000,-0.100000)"
    fill="#000000" stroke="none">
    <path d="M1285 2025 c-210 -32 -411 -97 -607 -197 -127 -64 -313 -181 -321
    -202 -6 -16 198 -477 216 -487 7 -5 59 7 120 26 140 44 307 81 437 96 106 12
    266 7 310 -9 20 -7 14 -11 -41 -21 -95 -19 -215 -59 -294 -98 -85 -42 -193
    -113 -200 -131 -6 -15 109 -288 130 -311 11 -11 22 -5 67 40 62 64 152 113
    297 163 162 56 283 78 461 82 85 2 158 4 162 4 4 0 30 72 59 161 l51 161 -21
    22 c-33 36 -187 112 -301 150 -204 68 -287 80 -550 81 -129 0 -257 -3 -283 -7
    -65 -10 -53 4 37 41 353 147 810 130 1193 -45 42 -19 84 -32 93 -29 12 4 28
    38 48 103 50 160 55 180 48 197 -15 41 -320 155 -521 195 -141 29 -452 36
    -590 15z" style="fill: url(#gradient);" />
    </g>
</svg>
